HIERARCHY
ROOT Hips
{
	OFFSET 0.00000 0.00000 0.00000
	CHANNELS 6 Xposition Yposition Zposition Zrotation Yrotation Xrotation 
	JOINT LHipJoint
	{
		OFFSET 0 0 0
		CHANNELS 3 Zrotation Yrotation Xrotation
		JOINT LeftUpLeg
		{
			OFFSET 1.58161 -1.81893 0.78828
			CHANNELS 3 Zrotation Yrotation Xrotation
			JOINT LeftLeg
			{
				OFFSET 2.53374 -6.96141 0.00000
				CHANNELS 3 Zrotation Yrotation Xrotation
				JOINT LeftFoot
				{
					OFFSET 2.63509 -7.23986 0.00000
					CHANNELS 3 Zrotation Yrotation Xrotation
					JOINT LeftToeBase
					{
						OFFSET 0.14115 -0.38781 2.05350
						CHANNELS 3 Zrotation Yrotation Xrotation
						End Site
						{
							OFFSET 0.00000 -0.00000 1.05543
						}
					}
				}
			}
		}
	}
	JOINT RHipJoint
	{
		OFFSET 0 0 0
		CHANNELS 3 Zrotation Yrotation Xrotation
		JOINT RightUpLeg
		{
			OFFSET -1.11138 -1.81893 0.78828
			CHANNELS 3 Zrotation Yrotation Xrotation
			JOINT RightLeg
			{
				OFFSET -2.58392 -7.09926 0.00000
				CHANNELS 3 Zrotation Yrotation Xrotation
				JOINT RightFoot
				{
					OFFSET -2.66423 -7.31992 0.00000
					CHANNELS 3 Zrotation Yrotation Xrotation
					JOINT RightToeBase
					{
						OFFSET -0.18831 -0.51739 2.12114
						CHANNELS 3 Zrotation Yrotation Xrotation
						End Site
						{
							OFFSET -0.00000 -0.00000 1.09845
						}
					}
				}
			}
		}
	}
	JOINT LowerBack
	{
		OFFSET 0 0 0
		CHANNELS 3 Zrotation Yrotation Xrotation
		JOINT Spine
		{
			OFFSET -0.01511 1.97958 -0.08829
			CHANNELS 3 Zrotation Yrotation Xrotation
			JOINT Spine1
			{
				OFFSET 0.08344 1.97334 -0.04330
				CHANNELS 3 Zrotation Yrotation Xrotation
				JOINT Neck
				{
					OFFSET 0 0 0
					CHANNELS 3 Zrotation Yrotation Xrotation
					JOINT Neck1
					{
						OFFSET 0.00559 1.76246 0.31246
						CHANNELS 3 Zrotation Yrotation Xrotation
						JOINT Head
						{
							OFFSET -0.07011 1.80354 -0.30524
							CHANNELS 3 Zrotation Yrotation Xrotation
							End Site
							{
								OFFSET -0.02385 1.83547 -0.13906
							}
						}
					}
				}
				JOINT LeftShoulder
				{
					OFFSET 0 0 0
					CHANNELS 3 Zrotation Yrotation Xrotation
					JOINT LeftArm
					{
						OFFSET 3.20667 1.30156 -0.60240
						CHANNELS 3 Zrotation Yrotation Xrotation
						JOINT LeftForeArm
						{
							OFFSET 4.95663 -0.00000 0.00000
							CHANNELS 3 Zrotation Yrotation Xrotation
							JOINT LeftHand
							{
								OFFSET 3.38177 -0.00000 0.00000
								CHANNELS 3 Zrotation Yrotation Xrotation
								JOINT LeftFingerBase
								{
									OFFSET 0 0 0
									CHANNELS 3 Zrotation Yrotation Xrotation
									JOINT LeftHandIndex1
									{
										OFFSET 0.66291 -0.00000 0.00000
										CHANNELS 3 Zrotation Yrotation Xrotation
										End Site
										{
											OFFSET 0.53445 -0.00000 0.00000
										}
									}
								}
								JOINT LThumb
								{
									OFFSET 0 0 0
									CHANNELS 3 Zrotation Yrotation Xrotation
									End Site
									{
										OFFSET 0.54261 -0.00000 0.54261
									}
								}
							}
						}
					}
				}
				JOINT RightShoulder
				{
					OFFSET 0 0 0
					CHANNELS 3 Zrotation Yrotation Xrotation
					JOINT RightArm
					{
						OFFSET -3.06877 1.34672 -0.60964
						CHANNELS 3 Zrotation Yrotation Xrotation
						JOINT RightForeArm
						{
							OFFSET -5.08365 -0.00000 0.00000
							CHANNELS 3 Zrotation Yrotation Xrotation
							JOINT RightHand
							{
								OFFSET -3.35984 -0.00000 0.00000
								CHANNELS 3 Zrotation Yrotation Xrotation
								JOINT RightFingerBase
								{
									OFFSET 0 0 0
									CHANNELS 3 Zrotation Yrotation Xrotation
									JOINT RightHandIndex1
									{
										OFFSET -0.82076 -0.00000 0.00000
										CHANNELS 3 Zrotation Yrotation Xrotation
										End Site
										{
											OFFSET -0.66172 -0.00000 0.00000
										}
									}
								}
								JOINT RThumb
								{
									OFFSET 0 0 0
									CHANNELS 3 Zrotation Yrotation Xrotation
									End Site
									{
										OFFSET -0.67182 -0.00000 0.67182
									}
								}
							}
						}
					}
				}
			}
		}
	}
}
MOTION
Frames: 8
Frame Time: .0083333
-6.225 17.8425 0.4034 0 0 0 0 0 0 -21 0 0 0 0 0 0 0 0 0 0 0 0 0 0 21 0 0 0 0 0 0 0 0 0 0 0 0 0 0 0 0 0 0 0 0 0 0 -16 0 0 21 0 0 11 0 0 0 -8 0 0 0 0 0 0 0 0 0 0 0 0 0 0 0 0 0 0 0 0 8 0 0 0 0 0 0 0 0 0 0 0 0 0 0 0 0 0
-6.2250 17.8425 0.4034 -114.5480 85.4156 -98.3373 0.0000 0.0000 0.0000 -4.1697 -3.6482 -27.5805 1.9146 8.6859 24.8177 0.3126 -4.1948 -9.9537 1.3831 -7.4414 -21.0299 0.0000 0.0000 0.0000 11.5569 7.7614 -27.9845 -2.2596 -9.3870 27.0135 -0.1366 -6.8704 -12.5628 -0.0855 1.8865 -5.1921 -1.4742 1.3506 0.6270 4.4565 1.8206 3.4436 5.4850 0.8480 3.0100 1.5622 -1.5582 -16.9502 -3.3689 0.5535 41.0957 -1.5629 0.5893 18.2643 -0.0000 -0.0000 0.0000 -106.7907 -23.2745 77.1438 11.5194 -19.0800 -1.9423 -0.0000 0.0000 -43.8121 27.6200 67.5098 25.8009 -7.1250 0.0000 -0.0000 168.7373 10.1373 9.2906 -0.0000 -0.0000 0.0000 102.6579 25.7621 40.5379 -9.5003 15.9542 -1.3343 0.0000 -0.0000 -31.8696 -17.3731 -9.3178 2.8999 7.1250 -0.0000 -0.0000 8.3488 -39.6014 1.1199
-6.2261 17.8431 0.4013 -114.6300 85.4001 -98.4266 0.0000 0.0000 0.0000 -4.1618 -3.6308 -27.6254 1.9215 8.7007 24.8633 0.3124 -4.2993 -9.9561 1.3441 -7.3400 -20.7266 0.0000 0.0000 0.0000 11.5661 7.7690 -27.9267 -2.2480 -9.3646 26.9427 -0.1354 -6.8982 -12.5728 -0.0886 1.9197 -5.2837 -1.4478 1.3481 0.6525 4.4577 1.8174 3.4368 5.4701 0.8477 2.9895 1.5495 -1.5525 -16.9384 -3.3393 0.5438 41.0363 -1.5477 0.5850 18.2251 -0.0000 -0.0000 0.0000 -106.8965 -23.2258 77.1722 11.4764 -19.0147 -1.9283 -0.0000 0.0000 -43.2753 28.0879 67.6512 26.2706 -7.1250 0.0000 -0.0000 168.7971 10.3386 9.1926 -0.0000 -0.0000 0.0000 102.5784 25.6613 40.7951 -9.5776 16.0762 -1.3556 0.0000 -0.0000 -32.0802 -17.4873 -9.2719 2.9059 7.1250 -0.0000 -0.0000 8.2428 -39.5631 1.1133
-6.2271 17.8430 0.3989 -114.2670 85.3732 -98.0820 0.0000 0.0000 0.0000 -4.1624 -3.5302 -27.6528 1.9242 8.7064 24.8810 0.3105 -4.3403 -9.9292 1.3772 -7.4263 -20.9847 0.0000 0.0000 0.0000 11.5826 7.8686 -27.8399 -2.2383 -9.3458 26.8830 -0.1316 -6.9976 -12.6187 -0.0898 1.9325 -5.3190 -1.3833 1.3464 0.6683 4.4522 1.8148 3.4469 5.4272 0.8482 2.9932 1.5755 -1.5521 -16.9605 -3.3809 0.5428 40.9949 -1.5720 0.5803 18.2065 0.0000 0.0000 0.0000 -107.0612 -23.1366 76.7809 11.3511 -18.8244 -1.8877 -0.0000 0.0000 -42.2052 27.5559 67.6088 25.7557 -7.1250 0.0000 -0.0000 168.6908 10.2179 9.3118 0.0000 0.0000 0.0000 102.5062 25.5850 40.9995 -9.6518 16.1931 -1.3763 0.0000 -0.0000 -32.4040 -17.3527 -9.1700 2.8508 7.1250 -0.0000 -0.0000 8.3414 -39.4471 1.1508
-6.2283 17.8436 0.3961 -113.9790 85.3733 -97.8204 0.0000 0.0000 0.0000 -4.1735 -3.5020 -27.6454 1.9298 8.7182 24.9178 0.3120 -4.3566 -9.9537 1.3673 -7.4005 -20.9074 0.0000 0.0000 0.0000 11.5884 7.8640 -27.7846 -2.2262 -9.3222 26.8085 -0.1295 -7.0050 -12.5899 -0.0856 1.8866 -5.1923 -1.3451 1.3585 0.6940 4.4332 1.8310 3.4515 5.3849 0.8577 2.9834 1.5918 -1.5661 -16.9840 -3.3778 0.5112 40.9956 -1.5801 0.5702 18.2116 0.0000 -0.0000 0.0000 -107.1245 -23.0878 76.5316 11.2371 -18.6507 -1.8510 -0.0000 0.0000 -41.6935 26.9749 67.4101 25.1700 -7.1250 0.0000 -0.0000 168.6222 9.9481 9.4341 0.0000 -0.0000 0.0000 102.4896 25.5507 41.0394 -9.6969 16.2641 -1.3889 0.0000 -0.0000 -32.5659 -17.2966 -9.2015 2.8507 7.1250 -0.0000 -0.0000 8.3949 -39.4752 1.1524
-6.2304 17.8453 0.3930 -113.9310 85.3339 -97.7790 0.0000 0.0000 0.0000 -4.1201 -3.5372 -27.6652 1.9381 8.7360 24.9728 0.3123 -4.4236 -9.9635 1.2708 -7.1449 -20.1452 0.0000 0.0000 0.0000 11.6339 7.8271 -27.7524 -2.2128 -9.2959 26.7252 -0.1279 -6.9922 -12.5475 -0.0638 1.6295 -4.4827 -1.2744 1.3760 0.7158 4.4280 1.8542 3.4558 5.3388 0.8717 2.9752 1.5911 -1.5781 -17.0289 -3.3305 0.4671 40.9873 -1.5669 0.5578 18.2166 -0.0000 -0.0000 0.0000 -107.1008 -23.0828 76.6175 11.2130 -18.6140 -1.8433 -0.0000 0.0000 -41.6795 27.4064 67.4318 25.5846 -7.1250 0.0000 -0.0000 168.7143 10.0333 9.3347 -0.0000 -0.0000 0.0000 102.4705 25.5431 41.0389 -9.7533 16.3527 -1.4047 0.0000 -0.0000 -32.7485 -17.3348 -9.2859 2.8833 7.1250 -0.0000 -0.0000 8.3764 -39.5654 1.1311
-6.2329 17.8461 0.3899 -113.2890 85.2031 -97.1236 0.0000 0.0000 0.0000 -3.9390 -3.5458 -27.6974 1.9485 8.7579 25.0409 0.3116 -4.4808 -9.9561 1.2046 -6.9631 -19.6061 0.0000 0.0000 0.0000 11.7709 7.9079 -27.7076 -2.2005 -9.2718 26.6494 -0.1280 -7.0267 -12.5888 -0.0365 1.2330 -3.3900 -1.1169 1.4033 0.7040 4.4623 1.8900 3.4707 5.2865 0.8938 2.9972 1.6133 -1.5781 -17.0884 -3.3503 0.4549 40.9402 -1.5827 0.5505 18.2040 0.0000 0.0000 0.0000 -107.1477 -23.0977 76.6192 11.1779 -18.5604 -1.8321 -0.0000 0.0000 -41.4566 27.6242 67.4697 25.7983 -7.1250 0.0000 -0.0000 168.7513 10.1014 9.2870 0.0000 0.0000 0.0000 102.4644 25.5282 41.1760 -9.8306 16.4741 -1.4265 0.0000 -0.0000 -33.0275 -17.4943 -9.3588 2.9341 7.1250 -0.0000 -0.0000 8.2514 -39.6534 1.0960
-6.2348 17.8449 0.3880 -112.3360 85.0125 -96.1439 0.0000 0.0000 0.0000 -3.6916 -3.4871 -27.7330 1.9581 8.7783 25.1041 0.3118 -4.5590 -9.9660 1.1599 -6.8375 -19.2348 0.0000 0.0000 0.0000 11.9848 7.9965 -27.6907 -2.1912 -9.2534 26.5913 -0.1300 -7.0262 -12.6236 -0.0316 1.1467 -3.1525 -0.9371 1.4307 0.6706 4.5391 1.9256 3.4711 5.2666 0.9166 3.0160 1.6042 -1.5754 -17.1210 -3.3977 0.4772 40.9115 -1.5990 0.5498 18.1972 -0.0000 -0.0000 0.0000 -107.2112 -23.0928 76.6263 11.1644 -18.5398 -1.8278 -0.0000 0.0000 -41.3035 27.5797 67.4360 25.7504 -7.1250 0.0000 -0.0000 168.7526 10.0638 9.2946 -0.0000 -0.0000 0.0000 102.5064 25.5129 41.1769 -9.8505 16.5054 -1.4322 0.0000 -0.0000 -33.0191 -17.5699 -9.4642 2.9804 7.1250 -0.0000 -0.0000 8.2041 -39.7684 1.0662
